# xmcd
#
# Track frame offsets: 
#        150
#        20892
#        41993
#        61626
#        77962
#        101909
#        119162
#        138441
#        154653
#        178768
#        208326
#        230142
#        253078
#
# Disc length: 3614 seconds
#
# Revision: 0
# Processed by: cddbd v1.5.2PL0 Copyright (c) Steve Scherf et al.
# Submitted via: ExactAudioCopy v1.2
#
DISCID=ca0e1c0d
DTITLE=Billy Price - Reckoning
DYEAR=2018
DGENRE=Blues
TTITLE0=39 Steps
TTITLE1=Dreamer
TTITLE2=Reckoning
TTITLE3=No Time
TTITLE4=I Love You More Than Words Can Say
TTITLE5=I Keep Holding On
TTITLE6=One and One
TTITLE7=Get Your Lie Straight
TTITLE8=Never Be Fooled Again
TTITLE9=Expert Witness
TTITLE10=Love Ballad
TTITLE11=Synthetic World
TTITLE12=Your Love Stays With Me
EXTD=
EXTT0=
EXTT1=
EXTT2=
EXTT3=
EXTT4=
EXTT5=
EXTT6=
EXTT7=
EXTT8=
EXTT9=
EXTT10=
EXTT11=
EXTT12=
PLAYORDER=
